HIERARCHY
ROOT Hips
{
	OFFSET 0.000000 0.000000 0.000000 
	CHANNELS 6 Xposition Yposition Zposition Yrotation Zrotation Xrotation 
	JOINT Lumbar
	{
		OFFSET 0.000000 0.000000 0.000000 
		CHANNELS 3 Zrotation Xrotation Yrotation
		JOINT Neck
		{
			OFFSET 0.000000 0.445665 0.000000 
			CHANNELS 3 Zrotation Xrotation Yrotation
			End Site
			{
				OFFSET 0.000000 0.227535 0.000000 
			}
		}
		JOINT RightShoulder
		{
			OFFSET 0.019635 0.377685 0.194865 
			CHANNELS 3 Zrotation Xrotation Yrotation
			JOINT RightElbow
			{
				OFFSET 0.000000 -0.243375 0.000000 
				CHANNELS 2 Zrotation Yrotation
				JOINT RightWrist
				{
					OFFSET 0.000000 -0.264825 0.000000 
					CHANNELS 2 Zrotation Xrotation
					End Site
					{
						OFFSET 0.006600 -0.176220 0.000990 
					}
				}
			}
		}
		JOINT LeftShoulder
		{
			OFFSET 0.019635 0.377685 -0.194865 
			CHANNELS 3 Zrotation Xrotation Yrotation
			JOINT LeftElbow
			{
				OFFSET 0.000000 -0.243375 0.000000 
				CHANNELS 2 Zrotation Yrotation
				JOINT LeftWrist
				{
					OFFSET 0.000000 -0.264825 0.000000 
					CHANNELS 2 Zrotation Xrotation
					End Site
					{
						OFFSET 0.006600 -0.176220 -0.000990 
					}
				}
			}
		}
	}
	JOINT RightHip
	{
		OFFSET 0.052140 -0.069960 0.075570 
		CHANNELS 3 Zrotation Xrotation Yrotation
		JOINT RightKnee
		{
			OFFSET 0.000000 -0.402270 0.000000 
			CHANNELS 1 Zrotation
			JOINT RightAnkle
			{
				OFFSET 0.000000 -0.404085 0.000000 
				CHANNELS 3 Zrotation Xrotation Yrotation
				End Site
				{
					OFFSET 0.204105 -0.089430 0.008415 
				}
			}
		}
	}
	JOINT LeftHip
	{
		OFFSET 0.052140 -0.069960 -0.075570 
		CHANNELS 3 Zrotation Xrotation Yrotation
		JOINT LeftKnee
		{
			OFFSET 0.000000 -0.402270 0.000000 
			CHANNELS 1 Zrotation
			JOINT LeftAnkle
			{
				OFFSET 0.000000 -0.404085 0.000000 
				CHANNELS 3 Zrotation Xrotation Yrotation
				End Site
				{
					OFFSET 0.204105 -0.089430 -0.008415 
				}
			}
		}
	}
}
MOTION
Frames: 32
Frame Time: 0.02
-1.09789 -0.54275 -0.14485 520.11967 -17.81895 9.46595 34.46424 16.20278 -0.81399 -19.30792 8.41209 -0.83078 53.75081 -7.44391 21.82533 96.56653 116.01434 -31.34045 -8.53351 104.01898 13.20252 -59.1185 59.48532 -23.93857 41.62201 11.63277 -6.00532 -24.8659 17.11363 -93.85016 -5.83888 -2.48482 -1.87589 86.27558 8.0169 11.64578 -142.25199 -5.90207 4.20872 2.81489
-1.09404 -0.54299 -0.1475 520.35936 -18.67566 9.77596 34.32479 15.85416 -0.49295 -19.24716 7.549 -0.83078 54.68209 -7.47857 22.16693 96.38019 115.63441 -30.93901 -8.5366 103.20099 14.70312 -58.55262 61.52683 -22.73995 40.62937 12.07844 -4.63945 -24.59253 17.46119 -94.87751 -5.83163 -2.47609 -1.87125 87.84135 8.22498 11.15783 -142.16794 -5.86224 4.1914 2.80276
-1.08897 -0.5435 -0.15022 520.67613 -19.75364 10.16757 34.20817 15.38006 -0.09018 -19.18075 6.51458 -0.83078 55.88192 -7.51036 22.59911 96.05966 115.17676 -30.45796 -8.54143 102.17138 16.46522 -57.80595 63.98659 -21.69483 39.28726 12.57584 -2.90333 -24.26548 17.96135 -96.19915 -5.82239 -2.46335 -1.8644 89.89412 8.45964 10.66759 -142.0678 -5.81607 4.17413 2.7904
-1.08434 -0.54387 -0.15289 520.95969 -20.68357 10.50742 34.01872 14.96268 0.24426 -19.11715 5.55094 -0.83078 56.99352 -7.54443 23.00845 95.77096 114.76189 -30.01795 -8.54515 101.21944 18.08457 -57.08981 66.23217 -21.14896 37.78098 13.00427 -1.37817 -23.96609 18.36401 -97.37869 -5.81474 -2.45024 -1.85738 91.68318 8.68251 10.16603 -141.96421 -5.77267 4.15556 2.77744
-1.08018 -0.54431 -0.15563 521.23702 -21.80921 10.90796 34.08423 14.54628 0.71 -19.05142 4.61329 -0.83078 57.96722 -7.57438 23.3409 95.60629 114.31354 -29.55606 -8.54989 100.34019 19.81241 -56.58404 68.58782 -18.28171 37.57734 13.62104 0.3242 -23.6524 18.88057 -98.5947 -5.80409 -2.44631 -1.85531 93.65032 8.90585 9.71251 -141.90452 -5.72923 4.1422 2.76728
-1.07476 -0.54467 -0.15824 521.54668 -22.58525 11.20287 33.63265 14.09799 0.92196 -18.98924 3.58273 -0.83078 59.28938 -7.61318 23.8553 95.15133 113.91761 -29.12145 -8.55326 99.26501 21.37157 -55.60544 70.80715 -20.18099 34.64946 13.86378 1.74963 -23.35529 19.19839 -99.80461 -5.79925 -2.42248 -1.8425 95.36676 9.13366 9.16097 -141.75049 -5.68464 4.11796 2.75124
-1.06609 -0.54474 -0.16038 521.90678 -22.29602 11.17468 31.68341 13.59436 0.41172 -18.93813 2.33329 -0.83078 61.51552 -7.66541 24.84368 93.92469 113.68733 -28.78525 -8.55019 97.65554 22.42431 -53.29973 72.58709 -36.12824 23.67866 13.00364 2.28065 -23.12536 18.92499 -100.91963 -5.81104 -2.34292 -1.79955 96.21822 9.36992 8.32708 -141.33584 -5.63747 4.06494 2.71975
-1.05621 -0.54473 -0.16239 522.29976 -21.65558 11.03946 29.22553 13.06278 -0.35599 -18.89103 0.99811 -0.83078 64.08015 -7.72864 26.01265 92.41159 113.51684 -28.48198 -8.54649 95.86487 23.29294 -50.53742 74.20739 -56.69959 10.08923 11.77549 2.5267 -22.9127 18.44765 -102.0187 -5.82874 -2.24382 -1.74607 96.809 9.60917 7.39746 -140.82776 -5.58963 4.00077 2.68225
-1.04693 -0.54476 -0.1645 522.69068 -21.20655 10.96088 27.04284 12.54262 -1.00544 -18.84224 -0.29525 -0.83078 66.4856 -7.79439 27.1034 91.03047 113.31228 -28.15736 -8.54402 94.1868 24.23008 -48.02681 75.87428 -74.54339 -1.89953 10.75355 2.92965 -22.68675 18.06796 -103.1295 -5.8437 -2.15476 -1.69805 97.55497 9.84493 6.51992 -140.36524 -5.54274 3.94092 2.64706
-1.03739 -0.54477 -0.16642 523.03107 -20.63258 10.85168 24.67437 12.02305 -1.6592 -18.79241 -1.60904 -0.83078 68.92708 -7.82847 28.18273 89.63425 113.11573 -27.8437 -8.53601 92.3733 25.24134 -45.32116 77.66545 -95.0181 -15.62205 9.57005 3.23275 -22.48147 17.67356 -104.23393 -5.85885 -2.06055 -1.64704 98.16711 10.0901 5.60547 -139.88892 -5.49273 3.88424 2.61363
-1.02813 -0.54481 -0.1687 523.48211 -20.23056 10.7794 22.57253 11.49777 -2.36384 -18.74611 -2.89546 -0.83078 71.36535 -7.93099 29.32546 88.20679 112.94074 -27.53261 -8.54138 90.802 26.04996 -42.91835 79.15436 -111.13131 -26.36586 8.63358 3.66774 -22.23845 17.2581 -105.34119 -5.87499 -1.97264 -1.59986 98.98452 10.31673 4.74592 -139.41952 -5.44932 3.8183 2.57512
-1.01983 -0.54503 -0.17194 524.24194 -20.4055 10.83787 21.3255 10.95967 -3.16687 -18.70555 -4.10938 -0.83078 73.75325 -8.22087 30.61634 86.73298 112.60635 -27.07485 -8.56584 89.94216 26.35201 -41.44171 79.84483 -113.87384 -28.10829 8.48122 4.56538 -21.88305 16.84452 -106.48234 -5.89266 -1.90547 -1.56512 100.47451 10.4851 4.05536 -138.99093 -5.42286 3.7295 2.52399
-1.01188 -0.54529 -0.17554 525.10933 -20.76155 10.9362 20.3657 10.41812 -4.00888 -18.66884 -5.28737 -0.83078 76.11681 -8.57881 31.96095 85.2441 112.32474 -26.64283 -8.60654 89.33393 26.45385 -40.29064 80.23465 -112.10182 -26.78512 8.58773 5.59833 -21.49017 16.41398 -107.62108 -5.91105 -1.84562 -1.53473 102.16961 10.63561 3.42439 -138.57286 -5.40336 3.63177 2.468
-1.00385 -0.54552 -0.17899 525.91986 -21.02279 11.01429 19.2777 9.88139 -4.81954 -18.63262 -6.46524 -0.83078 78.46348 -8.90524 33.26941 83.78235 112.16024 -26.2992 -8.65235 88.61241 26.64057 -39.00561 80.76234 -112.52601 -26.95378 8.56755 6.5486 -21.1172 15.98401 -108.74516 -5.92896 -1.78335 -1.50281 103.74102 10.79853 2.77025 -138.15078 -5.38163 3.53806 2.41425
-0.9954 -0.54579 -0.18235 526.7659 -21.32432 11.09809 18.16064 9.33003 -5.69603 -18.58777 -7.71591 -0.83078 80.94152 -9.23554 34.63444 82.22416 111.42432 -25.54777 -8.64788 87.8791 26.84603 -37.64515 81.28106 -112.50711 -26.80171 8.57251 7.57864 -20.7323 15.57781 -109.93618 -5.94777 -1.71651 -1.46862 105.43297 10.94411 2.09671 -137.72205 -5.35593 3.44399 2.36006
-0.98795 -0.54599 -0.18601 527.56229 -21.58996 11.18031 17.1808 8.80849 -6.44216 -18.56088 -8.80496 -0.83078 83.134 -9.57247 35.89118 80.86795 111.86243 -25.63428 -8.74893 87.2336 26.96825 -36.52546 81.74712 -112.27158 -26.55031 8.59166 8.4783 -20.36355 15.11988 -110.98635 -5.96474 -1.66125 -1.44037 106.92505 11.12071 1.4784 -137.31106 -5.34018 3.34888 2.30585
-0.98313 -0.54597 -0.19038 528.20184 -21.7107 11.25352 16.49792 8.37256 -6.80995 -18.5904 -9.45792 -0.83078 84.55547 -9.92273 36.84115 80.06747 115.76617 -28.17302 -9.1633 86.76103 26.90102 -35.99073 82.1579 -112.5786 -26.80396 8.5861 8.9869 -20.04491 14.532 -111.65623 -5.97712 -1.63564 -1.42721 107.82364 11.39435 1.00391 -136.94592 -5.34993 3.25183 2.25179
-0.97931 -0.54588 -0.19505 528.78636 -21.7919 11.32348 15.94907 7.96656 -7.04524 -18.63645 -9.94849 -0.83078 85.68598 -10.27521 37.67784 79.47369 120.80285 -31.52493 -9.67826 86.37072 26.75912 -35.68949 82.52352 -112.79272 -27.04419 8.58789 9.36134 -19.74425 13.89271 -112.1829 -5.98749 -1.62161 -1.41999 108.51429 11.69852 0.58256 -136.59904 -5.36947 3.15449 2.19816
-0.97506 -0.54582 -0.1996 529.3915 -21.89291 11.39196 15.34763 7.54526 -7.34612 -18.66978 -10.51235 -0.83078 86.94103 -10.61883 38.56255 78.79002 125.16825 -34.41213 -10.13041 85.94879 26.6583 -35.28381 82.89999 -113.00309 -27.25877 8.5885 9.7963 -19.43785 13.27139 -112.77003 -5.99827 -1.60272 -1.41029 109.29496 11.98408 0.13319 -136.24445 -5.38474 3.05798 2.1449
-0.9707 -0.54576 -0.20411 530.01869 -21.98895 11.4737 14.71614 7.13052 -7.62718 -18.72506 -11.07823 -0.83078 88.23002 -10.99749 39.46594 78.08701 130.20521 -37.71047 -10.6561 85.51067 26.5214 -34.88196 83.30758 -113.25561 -27.50436 8.58863 10.23474 -19.12051 12.66934 -113.37693 -6.01112 -1.58241 -1.39984 110.09894 12.28896 -0.29881 -135.88698 -5.39961 2.95763 2.08878
-0.96683 -0.54568 -0.20875 530.58582 -22.08778 11.52721 14.18116 6.70986 -7.91582 -18.73871 -11.60044 -0.83078 89.37687 -11.30341 40.30017 77.47555 134.1 -40.33463 -11.05133 85.12318 26.44305 -34.52363 83.64248 -113.45323 -27.71897 8.5884 10.63608 -18.82995 12.0187 -113.90823 -6.01929 -1.56767 -1.39227 110.80558 12.56117 -0.7539 -135.54061 -5.41741 2.86605 2.03915
-0.96402 -0.54551 -0.21375 530.99625 -22.16708 11.4976 13.82902 6.26108 -8.27139 -18.6315 -12.05289 -0.83078 90.22405 -11.40303 40.99344 77.05084 134.67382 -40.99594 -11.07094 84.84989 26.55901 -34.22631 83.79832 -113.56496 -27.88621 8.58275 10.93417 -18.6163 11.21669 -114.26921 -6.01402 -1.56598 -1.39148 111.264 12.73465 -1.29648 -135.21296 -5.44223 2.79282 2.00442
-0.9617 -0.54532 -0.21886 531.34798 -22.25575 11.44053 13.57675 5.80644 -8.63626 -18.48221 -12.46475 -0.83078 90.93412 -11.43035 41.61687 76.71445 134.04573 -40.93769 -10.95477 84.62492 26.73502 -33.9641 83.88206 -113.63915 -28.03167 8.57571 11.20418 -18.42817 10.37316 -114.5581 -6.00429 -1.56939 -1.39333 111.63505 12.87428 -1.86237 -134.89724 -5.46954 2.7298 1.9769
-0.9592 -0.54514 -0.22388 531.72935 -22.36453 11.39988 13.31164 5.35707 -8.98792 -18.35331 -12.88854 -0.83078 91.69303 -11.49315 42.25692 76.34747 133.88588 -41.13782 -10.89368 84.37966 26.87491 -33.68481 83.99344 -113.72427 -28.17896 8.56975 11.50976 -18.22328 9.56832 -114.8782 -5.99732 -1.57007 -1.39378 112.06655 13.03046 -2.41094 -134.58083 -5.49464 2.66578 1.94785
-0.95653 -0.54494 -0.2291 532.09799 -22.37259 11.34291 12.91695 4.89659 -9.37349 -18.21936 -13.3356 -0.83078 92.49923 -11.54334 42.95556 75.94603 134.06401 -41.63406 -10.86094 84.12866 27.04853 -33.41622 84.12489 -113.82798 -28.35654 8.56232 11.7186 -18.03932 8.67822 -115.2012 -5.98727 -1.57282 -1.39526 112.40841 13.18365 -2.98626 -134.24486 -5.524 2.58551 1.9109
-0.95434 -0.54478 -0.2339 532.47785 -22.58885 11.31293 12.81038 4.45889 -9.69162 -18.08606 -13.72487 -0.83078 93.17745 -11.60467 43.51873 75.63633 133.27661 -41.35969 -10.73951 83.90214 27.1682 -33.13361 84.19779 -113.88737 -28.46816 8.5575 12.11881 -17.81945 7.95625 -115.50122 -5.98249 -1.57242 -1.39518 112.91255 13.33353 -3.51179 -133.95249 -5.54575 2.54262 1.89278
-0.95328 -0.5448 -0.23759 532.92052 -23.4146 11.36867 13.50633 4.07358 -9.82786 -17.96183 -13.98009 -0.83078 93.54228 -11.69619 43.70994 75.54349 129.77229 -38.88676 -10.37142 83.71273 27.11575 -32.77703 84.12926 -113.83323 -28.39618 8.56037 13.09907 -17.47826 7.7119 -115.7701 -5.9942 -1.56122 -1.38974 113.94156 13.49184 -3.8967 -133.77571 -5.53855 2.59046 1.91888
-0.95269 -0.54487 -0.24082 533.3734 -24.44284 11.45176 14.48238 3.7138 -9.89506 -17.84013 -14.17615 -0.83078 93.78277 -11.80461 43.7699 75.54184 125.39123 -35.7014 -9.92423 83.54967 27.00882 -32.40938 84.00397 -113.74089 -28.26283 8.56631 14.26506 -17.10297 7.63812 -116.01617 -6.0112 -1.5468 -1.3827 115.12765 13.64616 -4.23011 -133.64287 -5.52471 2.67705 1.96457
-0.95191 -0.5449 -0.24419 533.81056 -25.35435 11.51933 15.30875 3.34958 -9.9906 -17.71922 -14.39025 -0.83078 94.07806 -11.91751 43.90122 75.5069 121.63862 -33.00457 -9.53635 83.38593 26.93292 -32.06245 83.90338 -113.66204 -28.15914 8.57007 15.31751 -16.75362 7.48412 -116.26391 -6.02523 -1.53433 -1.37661 116.20642 13.79603 -4.58619 -133.4908 -5.51892 2.75294 2.0055
-0.95101 -0.54499 -0.24788 534.29287 -26.37047 11.59874 16.23263 2.95354 -10.10039 -17.58883 -14.64141 -0.83078 94.37772 -11.97736 43.98342 75.43999 116.89514 -29.60277 -9.04735 83.17489 26.83304 -31.64864 83.80529 -113.58137 -28.03653 8.57512 16.49245 -16.36097 7.33905 -116.54626 -6.04155 -1.5199 -1.36958 117.43342 13.97099 -4.94778 -133.33521 -5.4928 2.80159 2.03013
-0.95049 -0.54497 -0.25077 534.68376 -27.21668 11.66063 17.01932 2.63165 -10.16248 -17.47909 -14.80034 -0.83078 94.63792 -12.15166 44.13412 75.46111 113.99594 -27.49031 -8.74921 83.06968 26.76883 -31.37355 83.68892 -113.51692 -27.95239 8.58072 17.45602 -16.05019 7.2177 -116.75143 -6.05433 -1.50887 -1.3642 118.39053 14.09344 -5.28331 -133.19828 -5.50636 2.91408 2.09212
-0.95088 -0.54468 -0.25167 534.82502 -27.54418 11.66552 17.35162 2.49389 -10.12241 -17.4278 -14.73284 -0.83079 94.84374 -12.64597 44.5367 75.69407 116.64147 -29.28062 -9.02168 83.23552 26.82126 -31.46132 83.5412 -113.31444 -27.86717 8.56418 17.79713 -15.97293 7.11034 -116.75514 -6.05671 -1.50647 -1.36302 118.56148 14.06968 -5.57654 -133.09319 -5.64033 3.21022 2.26241
